# xmcd
#
# Track frame offsets:
#	150
#	22451
#	43552
#	63334
#	85791
#	107997
#	129574
#	153142
#	174715
#	198206
#
# Disc length: 2956 seconds
#
# Revision: 13
# Processed by: cddbd v1.5.2PL0 Copyright (c) Steve Scherf et al.
# Submitted via: Jack! The Knife 20 Magnifico
#
DISCID=830b8a0a
DTITLE=Pooh - Un Posto Felice
DYEAR=1999
DGENRE=Pop
TTITLE0=Se Balla Da Sola
TTITLE1=Mi Manchi
TTITLE2=Quando Lui Ti Chiederà Di Me
TTITLE3=Io Ti Aspetterò
TTITLE4=Dimmi Di Sì
TTITLE5=Ricostruire Un Amore
TTITLE6=Sogno A Mezza Estate
TTITLE7=Quel Che Non Si Dice
TTITLE8=Eravamo Ragazzi
TTITLE9=20.000 Leghe Sopra I Cieli
EXTD=Pooh
EXTT0=Facchinetti, Negrini
EXTT1=Facchinetti, D'Orazio
EXTT2=Battaglia, D'Orazio
EXTT3=Canzian, D'Orazio
EXTT4=Facchinetti, D'Orazio
EXTT5=Canzian, Negrini
EXTT6=Facchinetti, Negrini
EXTT7=Battaglia, Negrini
EXTT8=Facchinetti, D'Orazio
EXTT9=Battaglia, D'Orazio
PLAYORDER=
